<svg height="54" viewBox="0 0 56 54" width="56" xmlns="http://www.w3.org/2000/svg"><path d="m0 0h56v54h-56z" fill="none"/><path d="m53 10h-13c-.369 0-.7183.0757-1.0449.1976.017.1796.0296.3677.036.5759.0088.283.009.6541.0087 1.1234v3.1031h16.0001v30h-16.0001v.1027c.0002.4698 0 .8408-.0087 1.1234-.0137.4482-.0508.8173-.1168 1.1624-.0846.4407-.2148.8364-.3984 1.2103-.1176.2393-.2621.4595-.4194.6696.5247.45 1.1979.7318 1.9434.7318h13c1.6569 0 3-1.3431 3-3v-34.0002c0-1.6569-1.3431-3-3-3zm-10.5 2.875c-.207 0-.375-.1679-.375-.375s.168-.375.375-.375.375.1679.375.375-.168.375-.375.375zm6.25-.125h-4.5c-.1375 0-.25-.1125-.25-.25s.1125-.25.25-.25h4.5c.1375 0 .25.1125.25.25s-.1125.25-.25.25zm-2.25 36.5c-.9666 0-1.75-.7835-1.75-1.75s.7834-1.75 1.75-1.75 1.75.7835 1.75 1.75-.7834 1.75-1.75 1.75zm1.13-1.75c0 .623-.5069 1.13-1.13 1.13s-1.13-.507-1.13-1.13.5069-1.13 1.13-1.13 1.13.5069 1.13 1.13zm-29.5589 1.9234c-.1183-.1431-.2277-.2926-.3267-.4512-.0764-.1225-.1562-.2427-.2205-.3737-.1835-.3735-.3138-.7695-.3984-1.2107-.066-.3444-.1031-.7136-.1169-1.1622-.0087-.2842-.0088-.6576-.0087-1.1302v-33.1909c-.0001-.4727 0-.8461.0087-1.1309.0139-.4487.0511-.8177.1169-1.1617.0845-.441.2149-.837.3984-1.2106.0643-.131.144-.2512.2205-.3736.0989-.1585.208-.3079.3262-.4507.0671-.0812.1277-.1681.2007-.2438.0613-.0636.1326-.1155.1977-.1749-.0575-.0146-.1103-.0345-.17-.0468-.2807-.0577-.5886-.0905-.9691-.1031-.2391-.0078-.5457-.0086-.9257-.0086h-.3009s-11.2068 0-11.2068 0h-.1603c-.0148 0-.0295 0-.044 0-.4251 0-.7634.0002-1.0224.0086-.3805.0126-.6884.0453-.969.1031-.3395.0699-.6417.1763-.9239.3254-.2925.1544-.5569.353-.7859.5905-.2289.2372-.4205.5113-.5696.8148-.1437.2924-.2463.6058-.3138.9579-.0556.2906-.0872.6098-.0995 1.0045-.0083.2766-.0081.6398-.0081 1.0996v33.1915c-.0001.4598-.0002.8231.0082 1.0995.0121.394.0437.7132.0995 1.0046.0676.3522.1702.6655.3138.9578.1489.3032.3405.5773.5696.8148.2289.2374.4933.436.7859.5905.2822.1491.5844.2555.9239.3253.2805.0577.5884.0906.969.1031.2398.0079.5475.0086.9294.0086h11.8013c.3819 0 .6896-.0007.9294-.0086.3806-.0126.6885-.0454.9691-.1031.0597-.0123.1125-.0322.17-.0468-.0651-.0593-.1364-.1113-.1977-.1748-.0729-.0756-.1333-.1624-.2003-.2433zm-8.5711-30.1734h-5c-1.5164 0-2.75-1.2336-2.75-2.75v-5c0-1.5164 1.2336-2.75 2.75-2.75h5c1.5164 0 2.75 1.2336 2.75 2.75v5c0 1.5164-1.2336 2.75-2.75 2.75zm1.75-2.4445c0 .1381-.1119.25-.25.25s-.25-.1119-.25-.25.1119-.25.25-.25.25.1119.25.25zm-1.75-5.3818c.5523 0 1-.4478 1-1s-.4477-1-1-1-1 .4477-1 1 .4478 1 1 1zm0-1.5c.2757 0 .5.2243.5.5s-.2243.5-.5.5-.5-.2243-.5-.5.2243-.5.5-.5zm-3 1.6262c0 1.1046-.8954 2-2 2s-2-.8954-2-2 .8954-2 2-2 2 .8954 2 2zm0 4.95c0 1.1046-.8954 2-2 2s-2-.8954-2-2 .8954-2 2-2 2 .8954 2 2zm5-2.5c0 1.1046-.8954 2-2 2s-2-.8954-2-2 .8954-2 2-2 2 .8954 2 2zm26.4906-3.2136c-.0126-.385-.0435-.7-.0982-.9862-.0676-.3521-.1702-.6655-.3138-.9579-.1492-.3035-.3409-.5776-.5696-.8147-.2289-.2374-.4933-.436-.7859-.5905-.2822-.149-.5845-.2555-.9239-.3254-.2807-.0577-.5886-.0905-.9691-.1031-.2391-.0078-.5457-.0086-.9257-.0086h-.3009s-10.2068 0-10.2068 0h-.1603c-.0148 0-.0295 0-.044 0-.4251 0-.7634.0002-1.0224.0086-.3805.0126-.6884.0453-.969.1031-.3395.0699-.6417.1763-.9239.3254-.0972.0513-.1863.1147-.277.1755-.1477.0991-.2868.2092-.4155.3323-.0301.0288-.0644.0526-.0934.0826-.085.088-.1592.1861-.2336.2839-.1261.1657-.2422.34-.336.5308-.1437.2924-.2463.6058-.3138.9579-.0556.2906-.0872.6098-.0995 1.0045-.0084.2766-.0083.6398-.0082 1.0996v33.1916c-.0001.4598-.0002.8231.0082 1.0995.0121.394.0437.7132.0995 1.0046.0676.3522.1702.6655.3138.9578.0937.1908.21.3651.3361.5309.0744.0977.1485.1957.2335.2838.0291.0302.0636.054.0938.0829.1286.1229.2675.233.4151.332.0908.0609.1798.1243.277.1756.2822.1491.5844.2555.9239.3253.2805.0577.5884.0906.969.1031.2398.0079.5475.0086.9294.0086h10.8013c.3819 0 .6896-.0007.9294-.0086.3806-.0126.6885-.0454.9691-.1031.3394-.0698.6417-.1762.9239-.3253.2928-.1547.5572-.3533.7859-.5905.1475-.1529.2731-.3259.3882-.5073.0635-.1002.1283-.1996.1813-.3075.1437-.2927.2463-.606.3138-.9578.0557-.2911.0872-.6104.0993-1.0045.0085-.2751.0085-.6357.0082-1.0922v-33.2061c.0002-.4566.0003-.8173-.0082-1.0923-.0002-.0067-.0009-.0117-.0011-.0182zm-1.3006 36.9347c-.1036.2109-.2361.4007-.3936.5641-.1556.1614-.3359.2968-.5359.4025-.1981.1047-.4142.1802-.6609.231-.2244.0462-.4793.0727-.8019.0834-.2314.0076-.5284.0081-.8969.0081h-10.8013c-.3686 0-.6655-.0005-.8967-.0081-.3229-.0107-.5779-.0372-.8023-.0834-.2454-.0505-.4603-.1259-.658-.23-.0009-.0005-.0021-.0006-.0031-.0011-.1534-.0811-.2834-.1945-.4116-.3091-.0386-.0346-.088-.0558-.1241-.0933-.0815-.0845-.136-.1939-.2036-.2918-.063-.0913-.14-.1703-.1899-.2722-.1042-.212-.1795-.4436-.2301-.7075-.0457-.2385-.0718-.5082-.0823-.8484-.0082-.2689-.0079-.6221-.0078-1.0693v-33.1919c-.0001-.4471-.0004-.8004.0078-1.0687.0106-.3412.0367-.611.0822-.8488.0507-.2642.1259-.4957.2302-.7078.05-.1019.127-.1808.1899-.2722.0676-.0979.1221-.2073.2036-.2917.0361-.0374.0854-.0587.124-.0932.1283-.1147.2583-.2282.4117-.3092.0009-.0005.0021-.0005.003-.001.1974-.1039.4126-.1795.6581-.23.2242-.0461.479-.0726.8017-.0833.2437-.008.5598-.0081.9953-.0081h.199s10.207 0 10.207 0h.1637s.137 0 .137 0c.3667 0 .6627.0005.8931.0081.3229.0106.5778.0371.8021.0833.2465.0507.4627.1263.6614.2312.1995.1053.3796.2406.5355.4022.1574.1632.2899.353.3934.5636.1042.2124.1796.4441.2302.7076.0456.2386.0717.5082.0821.8494.0084.2672.008.6175.0078 1.0615v33.2067c.0002.4435.0005.7938-.0078 1.0615-.0004.0127-.0016.022-.0021.0345-.0112.3229-.0361.5847-.0799.8136-.0507.2642-.126.4958-.2302.7079zm-5.69-38.2877c-.0053.5046-.4186.9095-.9233.9042h-4.1726c-.4973-.0052-.899-.407-.9042-.9042-.0052-.5046.3996-.918.9042-.9233h4.1734.0182c.5046.0052.9095.4186.9042.9233z" fill="#1d1d1f"/></svg>